Patient4_TMGait_0pt8_01_left_29_EMG.mot
version=1
nRows=33
nColumns=33
inDegrees=no
endheader
time	1LAddLong	2LGlutMax	3LGlutMed	4LIliopsoas	5LSemiMemb	6LBicFemLong	7LRecFem	8LVastMed	9LVastLat	10LGasMed	11LTibAnt	12lTibPost	13LPeroneusLong	14LSol	15LExtDigLong	16LFlexDigLong	17RAddLong	18RGlutMax	19RGlutMed	20RIliopsoas	21RSemiMemb	22RBicFemLong	23RRecFem	24RVastMed	25RVastLat	26RGasMed	27RTibAnt	28RTibPost	29RPeroneusLong	30RSol	31RExtDigLong	32RFlexDigLong
33.02	0.005951	0.62302	0.053406	-0.009766	-0.049896	-0.06073	-0.058594	-0.005798	0.24612	-0.002441	0.027466	0.012817	0.042114	0.1329	-0.001526	0.02182	0.044861	0.13779	-0.2478	-0.082703	-0.2388	-0.042267	-0.32089	-0.13321	-0.061188	0.002747	0.15076	-0.02121	-0.10452	0.16251	-0.003662	0.001678
33.021	0.016479	0.6189	-0.035248	0.019836	-0.029602	-0.06485	-0.079193	0.00412	0.18997	0.066681	0.02533	0.007935	0.024414	0.18906	0.009766	-0.11322	0.046539	0.19669	-0.058289	-0.068817	0.053864	0.13672	-0.29312	-0.06546	0.02533	0.000305	0.28549	-0.020905	-0.466	0.16983	0.000153	-0.001526
33.022	0.021362	0.61966	-0.081024	-0.005035	0.050049	-0.061646	-0.066071	-0.001526	0.1828	0.030365	0.026703	0.005646	0.020599	0.08194	0.006866	0.23071	-0.009766	0.17044	0.38971	-0.039063	0.18082	0.22324	-0.21225	-0.077362	0.15411	-0.001984	0.090485	-0.014038	-0.30228	-0.041962	-0.005035	0.015411
33.023	0.03067	0.58289	-0.11246	-0.006714	-0.011902	-0.045624	-0.068359	-0.004272	0.19241	-0.002747	0.025482	-0.002289	0.055389	0.021057	0.011292	-0.3714	-0.014191	0.19287	0.042572	0.002747	-0.057373	0.26108	-0.16327	-0.056763	0.14069	-0.006866	-0.035706	-0.017242	0.006256	-0.018921	-0.004578	0.00473
33.024	0.033417	0.54459	-0.040894	0.003052	-0.032043	-0.074463	-0.053406	-0.00351	0.2124	-0.040588	0.021515	0.000458	0.051422	-0.044861	0.01709	0.75134	-0.050201	0.18188	-0.25207	-0.10773	-0.38925	0.2124	-0.090027	0.057831	0.090485	-0.012054	-0.067139	-0.022125	0.28183	0	0.00412	-0.002136
33.025	0.026855	0.53818	0.015564	0.011292	0.058746	-0.079651	-0.077972	0.001373	0.24124	-0.018158	0.022736	0.002747	0.043488	-0.20737	0.003357	0.084076	-0.039673	0.22049	-0.010376	-0.21637	-0.066071	-0.031433	-0.10147	0.093842	0.11597	-0.015259	-0.065613	-0.019989	0.24368	0.001678	-0.003357	-0.002136
33.026	0.02533	0.49881	-0.030518	0.005951	0.059814	-0.024567	-0.085907	0.007324	0.28885	0.001984	0.027161	-0.005188	0.025177	-0.32822	-0.038757	0.25848	-0.028839	0.15518	-0.14023	-0.19455	0.11124	-0.1384	-0.060577	0.14832	0.073242	-0.041504	0.053101	-0.025024	-0.059814	0.13214	-0.005188	-0.007019
33.027	0.016479	0.4602	-0.083008	0.005188	-0.032043	-0.001831	-0.080719	0.001373	0.28137	0.003967	0.032806	-0.005951	0.028229	-0.095215	-0.020294	0.42435	-0.020905	0.12054	-0.39398	0.001831	-0.003967	-0.089874	-0.012054	0.13062	0.063019	-0.017395	0.055542	-0.017395	0.083771	0.20035	-0.003662	-0.007324
33.028	0.021667	0.44662	-0.059509	0.007629	-0.089722	-0.031891	-0.091095	0.006256	0.29572	0.001831	0.023041	-0.00412	0.021057	0.057678	-0.003815	-0.41626	-0.017395	0.11078	0.26413	0.20676	-0.067444	-0.015411	-0.005493	0.069885	0.073547	-0.013123	0.061951	0	-0.041351	0.15182	-0.004883	-0.007782
33.029	0.021515	0.41229	-0.00885	0.001831	-0.075989	-0.087738	-0.071106	0.005188	0.29159	-0.003052	0.019836	-0.007019	0.009918	0.12314	-0.006866	0.02655	-0.02594	0.085754	0.93338	0.31036	-0.12604	0.036163	0.064697	0.040283	0.1326	-0.018768	0.058289	-0.037384	-0.027161	0.084534	-0.001678	-0.015564
33.03	0.021057	0.3981	-0.071716	0.015869	0.052185	-0.11612	-0.093079	0.005951	0.28641	-0.027008	0.024567	-0.005646	0.020142	0.069733	-0.005646	0.09613	-0.024414	-0.077209	0.8223	0.33585	-0.11551	0.052795	0.12558	0.041656	0.14114	-0.025177	0.083313	-0.1831	-0.08667	-0.23956	-0.001678	-0.023193
33.031	0.02243	0.35782	-0.051422	0.002594	0.11063	-0.11826	-0.094757	0.005188	0.23468	-0.048523	0.019836	-0.001068	0.036163	0.12619	0.00946	-0.010529	-0.018768	-0.085602	0.39002	0.1062	-0.10529	0.053101	0.12024	0.009613	0.075836	0.027008	0.001831	-0.52917	0.041046	-0.14175	-0.002441	-0.017242
33.032	0.025787	0.35553	-0.056152	0.005341	0.097656	-0.091858	-0.10376	0.005951	0.20065	-0.064392	0.016479	-0.000458	0.023499	0.15305	0.015411	-0.02182	-0.009003	-0.078888	0.25375	-0.13168	-0.006409	0.023499	-0.00946	-0.007324	-0.007324	0.066376	-0.072021	-0.007324	0.17212	0.030975	-0.001984	-0.011444
33.033	0.023499	0.32623	-0.082397	0.00946	0.057526	-0.036011	-0.093842	0.006409	0.19836	-0.072021	0.010681	-0.007477	0.017548	-0.042114	0.002747	-0.028534	-0.004883	-0.1294	0.18143	-0.15106	-0.009003	-0.014191	0.056763	-0.033875	-0.094452	0.021973	-0.066833	0.47134	0.11627	-0.10651	0.000763	-0.005188
33.034	0.02655	0.31723	-0.065308	-0.002747	0.039673	-0.011444	-0.09079	0.00412	0.21744	-0.098267	0.028839	-0.005951	0.002136	-0.11887	-0.011139	-0.023651	0.003204	-0.18463	0.31204	-0.019989	0.037689	-0.06424	0.002747	-0.16739	-0.14496	-0.012207	-0.061188	0.29953	0.13702	-0.1181	-0.00473	-0.000305
33.035	0.019073	0.31372	-0.080109	0.001373	0.02182	-0.015106	-0.10529	0.00412	0.22217	-0.11093	0.016174	-0.00885	0.035706	-0.093994	-0.011292	-0.044403	-0.011292	-0.2002	0.33279	0.21439	-0.004578	-0.07843	-0.069885	-0.17197	-0.19867	-0.035858	-0.016937	0.12863	-0.059052	-0.32425	-0.003204	-0.008392
33.036	0.021515	0.31448	-0.10254	0.006104	0.020599	-0.015717	-0.090027	0.005035	0.23086	-0.12375	0.01709	-0.006409	0.028534	0.10025	-0.005035	-0.045166	-0.023956	-0.19241	0.077515	0.42297	-0.041199	-0.049286	-0.011749	-0.046539	-0.19806	-0.035706	0.028687	-0.10498	-0.23987	0.076904	-0.000916	-0.009308
33.037	0.020599	0.31067	-0.060425	0.005951	0.005341	-0.031433	-0.093842	0.002899	0.233	-0.10101	0.024567	-0.010834	-0.052185	0.14252	-0.006561	-0.043793	-0.032349	-0.16892	0.62042	0.19806	-0.054779	-0.045624	0.017548	-0.037689	-0.19699	-0.025177	0.045471	-0.31265	-0.33814	0.5394	-0.006866	-0.000458
33.038	0.022125	0.33066	-0.058746	-0.004425	0.001984	-0.035706	-0.092621	0.016632	0.22751	-0.087128	0.033875	-0.014191	-0.034485	0.087891	0.001526	-0.039063	-0.022125	-0.25681	0.47134	0.050354	-0.03479	-0.04364	-0.11932	-0.076904	-0.30029	0.011902	0.02594	0.19196	-0.29694	0.51071	-0.006104	0.001984
33.039	0.025787	0.28366	-0.042725	-0.004425	0.007935	-0.030212	-0.09079	-0.029297	0.20676	-0.046539	0.015411	-0.010071	0.011749	-0.079041	-0.00885	-0.039825	-0.006409	-0.31952	-0.097351	-0.023499	0.06485	-0.081635	-0.24551	-0.12054	-0.28366	0.005493	0.019226	0.12924	-0.29999	0.5043	-0.003204	0.001526
33.04	0.014801	0.24612	-0.077362	-0.001831	0.004578	-0.00824	-0.06424	0.010529	0.18036	-0.039368	0.020447	-0.005188	0.024872	-0.091553	0.001068	-0.041656	0.019684	-0.34332	0.094299	-0.096436	-0.015564	-0.099792	-0.19394	-0.13763	-0.15488	-0.010986	-0.007477	0.089569	-0.1564	0.30777	-0.00061	0.004272
33.041	0.012665	0.24994	-0.087128	-0.008087	-0.001373	0.009003	-0.075073	0.003662	0.15137	-0.021973	0.012207	-0.006561	0.026093	-0.055542	0.005493	-0.032043	0.01358	-0.36285	0.58716	-0.058289	-0.063171	-0.058289	-0.19898	-0.13626	0.040741	-0.018005	0.013123	0.011902	-0.038757	0.32715	-0.00946	0.001373
33.042	0.007782	0.23239	-0.10132	0.003204	0.00412	0.019836	-0.065155	0.009003	0.14114	0.009766	0.002899	0.000305	0.018311	-0.041962	0.004578	-0.02243	0.018463	-0.40497	1.0086	-0.016937	-0.035553	-0.045319	-0.12589	-0.04303	0.14542	0.000916	0.005951	-0.013428	0.083313	0.19775	-0.001984	0.002899
33.043	0.010834	0.20981	-0.12436	0.003357	0.009308	0.03891	-0.07431	0.012054	0.1268	0.025177	0.010986	-0.004425	0.060272	-0.024261	-0.010986	-0.016479	0.018921	-0.48157	0.36789	-0.077362	-0.045319	-0.042419	-0.032806	0.076141	0.004425	0.003357	0.003815	0.04364	0.16922	-0.041504	-0.002136	-0.005493
33.044	0.010986	0.18906	-0.12024	0.017548	0.005646	0.061951	-0.063019	0.009613	0.12009	0.011139	0.015259	-0.009613	0.019989	0.072479	-0.011444	-0.019684	0.03479	-0.51727	0.36957	-0.080261	-0.048676	-0.037689	-0.20966	0.11581	-0.004272	0.009918	0.011749	-0.040131	0.121	-0.24658	-0.00061	-0.004578
33.045	0.006104	0.17685	-0.051117	0.019836	-0.006714	0.066071	-0.07782	0.007782	0.10513	0.000458	0.01709	-0.013428	-0.042267	0.19501	-0.012512	-0.009613	0.036011	-0.50797	-0.073853	-0.11993	-0.13367	-0.029297	-0.32913	0.17883	0.23331	-0.008392	0.005188	-0.050201	-0.10452	-0.13351	-0.004272	-0.00473
33.046	0.009918	0.16205	0.14923	0.022736	-0.045776	0.006104	-0.058136	0.013885	0.088043	-0.011139	0.021515	-0.005493	-0.023041	0.13382	-0.014038	-0.018616	0.014801	-0.52689	0.3006	-0.18402	-0.065918	-0.050659	-0.19257	0.10147	0.090637	-0.013275	0.00473	-0.04837	0.10498	-0.34424	-0.004425	-0.006104
33.047	0.004425	0.16052	0.093231	0.007782	-0.054779	-0.073242	-0.054169	0.009155	0.096588	-0.024567	0.016937	-0.000305	-0.007019	0.054779	-0.012512	-0.007172	0.01236	-0.54764	0.91034	-0.21133	0.056	-0.087738	-0.13153	0.07309	0.034332	-0.012207	0.005341	-0.0383	0.19913	-0.29495	-0.002289	-0.00885
33.048	-0.031128	0.09903	0.020905	-0.001678	-0.017548	-0.048981	-0.086212	0.008392	0.096893	-0.025177	0.019226	-0.005951	0.006256	0.011292	-0.005646	-0.012665	0.003052	-0.67307	0.16068	-0.10391	0.091095	-0.072937	-0.1683	0.037994	0.032501	-0.010986	0.016937	-0.016327	0.14313	-0.072479	-0.001526	-0.019073
33.049	0.000153	0.097809	-0.005188	0.003815	0.02533	-0.013275	-0.07431	0.008545	0.093536	-0.039063	0.00885	0.00885	0.041199	-0.031586	0.013275	-0.00473	0.018158	-0.64575	-0.002136	0.13184	0.19196	-0.041351	-0.14984	0.045776	0.026855	-0.010681	0.009308	-0.011902	0.041656	-0.062714	-0.001373	-0.021057
33.05	0.055237	0.093536	0.005798	-0.01236	0.02594	0.038452	-0.083466	0.000916	0.078888	-0.039215	0.006714	-0.002441	0.041504	-0.16022	-0.002441	-0.007172	0.049286	-0.6398	0.095367	0.076752	0.26855	0.027008	-0.12985	0.003052	0.00061	-0.011139	0.000458	-0.001984	0.026703	-0.038757	-0.002136	-0.007477
33.051	0.014954	0.078278	0.044098	-0.007935	0.0383	0.061646	-0.079193	0.006561	0.070801	-0.031128	0.010376	-0.001373	0.054626	-0.079651	-0.00412	-0.002136	0.065765	-0.5867	0.38956	-0.033264	0.15121	0.005951	-0.09079	-0.094757	0.000153	-0.012665	0.006256	0.002594	-0.11993	0.009766	0.001678	-0.009766
33.052	0.019531	0.057983	0.045929	-0.006866	0.046082	0.074615	-0.06897	0.011902	0.068512	-0.033722	0.014191	0.00351	0.034943	-0.038147	0.002747	-0.003204	-0.013123	-0.58014	0.36804	-0.074005	-0.65445	0.17593	-0.090332	-0.043488	-0.025482	-0.016785	0.018158	-0.013733	-0.063019	0.015106	-0.002594	0.004272
